<svg width="1791.9999999999998" height="1791.9999999999998" xmlns="http://www.w3.org/2000/svg">

 <g>
  <title>background</title>
  <rect fill="none" id="canvas_background" height="402" width="582" y="-1" x="-1"/>
 </g>
 <g>
  <title>Layer 1</title>
  <path id="svg_1" d="m842.93512,1356.426514l297.869568,-340.422363l-680.844666,0l-297.869522,340.422363l680.84462,0zm898.041199,-954.77832q13.297729,30.141571 8.421875,63.385956t-27.038696,58.066803l-794.318848,907.792847q-33.687622,39.006714 -85.10553,39.006714l-680.84462,0q-33.687622,0 -61.612892,-18.173584t-42.109528,-48.315063q-13.297752,-30.141602 -8.421906,-63.385986t27.03875,-58.066772l794.318726,-907.792908q33.687622,-39.006714 85.10553,-39.006714l680.844727,0q33.687622,0 61.612915,18.173584t42.109497,48.315125z"/>
  <line stroke-linecap="null" stroke-linejoin="null" id="svg_8" y2="1445.44084" x2="1595.213512" y1="1445.44084" x1="270.504074" stroke-width="50" stroke="#000000" fill="none"/>
 </g>
</svg>