<?xml version="1.0" encoding="UTF-8" standalone="no"?>
<!DOCTYPE svg PUBLIC "-//W3C//DTD SVG 1.1//EN" "http://www.w3.org/Graphics/SVG/1.1/DTD/svg11.dtd">
<svg width="100%" height="100%" viewBox="0 0 1024 1024" version="1.1" xmlns="http://www.w3.org/2000/svg" xmlns:xlink="http://www.w3.org/1999/xlink" xml:space="preserve" xmlns:serif="http://www.serif.com/" style="fill-rule:evenodd;clip-rule:evenodd;stroke-linejoin:round;stroke-miterlimit:2;">
    <path d="M272.981,548.224C343.595,548.224 400.981,605.611 400.981,676.224C400.981,770.517 324.608,846.891 230.315,846.891C166.101,846.891 98.901,813.611 59.648,761.557C95.701,761.557 144.981,732.117 144.981,676.224C144.981,605.611 202.368,548.224 272.981,548.224ZM857.728,148.437C874.581,165.077 874.581,191.957 857.728,208.811L475.648,590.891L358.315,473.557L740.395,91.477C757.035,74.837 784.128,74.837 800.768,91.477L857.728,148.437Z"/>
    <path d="M693.888,674.56L693.888,491.84C693.888,482.411 701.525,474.773 710.955,474.773L747.499,474.773C756.928,474.773 764.565,482.411 764.565,491.84L764.565,674.56L947.285,674.56C956.715,674.56 964.352,682.197 964.352,691.627L964.352,728.149C964.352,737.579 956.715,745.216 947.285,745.216L764.565,745.216L764.565,927.936C764.565,937.365 756.928,945.003 747.499,945.003L710.229,945.003C705.899,945.003 701.739,943.296 698.688,940.224C695.616,937.152 693.888,932.992 693.888,928.661L693.888,745.216L511.168,745.216C501.739,745.216 494.101,737.579 494.101,728.149L494.101,690.901C494.101,686.571 495.829,682.411 498.901,679.339C501.952,676.267 506.112,674.56 510.443,674.56L693.888,674.56Z"/>
</svg>
