<?xml version="1.0" encoding="UTF-8" standalone="no"?><!DOCTYPE svg PUBLIC "-//W3C//DTD SVG 1.1//EN" "http://www.w3.org/Graphics/SVG/1.1/DTD/svg11.dtd"><svg width="100%" height="100%" viewBox="0 0 48 48" version="1.1" xmlns="http://www.w3.org/2000/svg" xmlns:xlink="http://www.w3.org/1999/xlink" xml:space="preserve" xmlns:serif="http://www.serif.com/" style="fill-rule:evenodd;clip-rule:evenodd;stroke-linejoin:round;stroke-miterlimit:2;"><path d="M12.796,25.698c-3.31,0 -6,2.69 -6,6c-0,2.62 -2.31,4 -4,4c1.84,2.44 4.99,4 8,4c4.42,0 8,-3.58 8,-8c0,-3.31 -2.69,-6 -6,-6Zm27.41,-18.74l-2.67,-2.67c-0.78,-0.78 -2.05,-0.78 -2.83,0l-17.91,17.91l5.5,5.5l17.91,-17.91c0.79,-0.79 0.79,-2.05 0,-2.83Z" style="fill-rule:nonzero;"/><path d="M32.526,31.62l0,-8.565c0,-0.442 0.358,-0.8 0.8,-0.8l1.713,0c0.442,0 0.8,0.358 0.8,0.8l0,8.565l8.565,0c0.442,0 0.8,0.358 0.8,0.8l0,1.712c0,0.442 -0.358,0.8 -0.8,0.8l-8.565,0l0,8.565c0,0.442 -0.358,0.8 -0.8,0.8l-1.747,0c-0.203,0 -0.398,-0.08 -0.541,-0.224c-0.144,-0.144 -0.225,-0.339 -0.225,-0.542l0,-8.599l-8.565,0c-0.442,0 -0.8,-0.358 -0.8,-0.8l0,-1.746c0,-0.203 0.081,-0.398 0.225,-0.542c0.143,-0.144 0.338,-0.224 0.541,-0.224l8.599,0Z"/></svg>