<?xml version="1.0" encoding="UTF-8" standalone="no"?><!DOCTYPE svg PUBLIC "-//W3C//DTD SVG 1.1//EN" "http://www.w3.org/Graphics/SVG/1.1/DTD/svg11.dtd"><svg width="100%" height="100%" viewBox="0 0 256 256" version="1.1" xmlns="http://www.w3.org/2000/svg" xmlns:xlink="http://www.w3.org/1999/xlink" xml:space="preserve" xmlns:serif="http://www.serif.com/" style="fill-rule:evenodd;clip-rule:evenodd;stroke-linejoin:round;stroke-miterlimit:2;"><path d="M127.1,19.6c-11.6,3.1 -13.5,4.7 -61.9,52.8c-25.5,25.4 -47.7,48.2 -49.3,50.8c-12.7,19.7 -9.5,42.7 9.6,68.3c7.5,10.2 28.7,31.5 38.5,38.7c24.5,18.2 44.1,22.1 63.9,12.6c5.9,-2.8 11.2,-7.8 50.9,-47.2c34.9,-34.7 44.2,-43.5 43.7,-41.1c-1.3,5.7 -4.7,11.5 -10.5,17.9c-6.6,7.3 -9.6,13.8 -8.6,18.9c1.5,8.1 14.5,17.5 22.7,16.4c5.2,-0.7 9.3,-4.5 11.4,-10.6c2.5,-7.2 3,-22.9 1.1,-34.6c-3.4,-20.3 -3.6,-24 -2.1,-34.5c3.1,-22.3 -3.6,-38.6 -26.4,-64.5c-14.7,-16.6 -33,-31.6 -46.8,-38.5c-13.3,-6.6 -25.2,-8.4 -36.2,-5.4Zm20.7,11.5c7.5,1.8 22.2,9.3 31.3,16c10.5,7.8 23.2,20.5 29.9,30.1c5.6,7.8 12,19.8 12,22.3c0,5.3 -16.6,7.4 -44.9,5.7c-19.8,-1.2 -36.1,-3.3 -40.3,-5.2c-2.5,-1.2 -7.9,-9.1 -12.7,-18.7c-8.7,-17.5 -9.5,-36.8 -1.8,-45.2c5.1,-5.6 15.6,-7.6 26.5,-5Zm-42.9,30.7c1.5,14.1 5.2,24.7 12.5,35.7c6.9,10.4 24.8,28.8 34.7,35.8c14,9.9 30.6,16.4 44.1,17.4l7.6,0.6l-36,35.6c-23.3,23 -38,36.9 -41.8,39.2c-14.2,8.7 -30.8,7.4 -49.6,-4.1c-20.1,-12.2 -41.7,-35.8 -49.8,-54.4c-2.8,-6.5 -3.1,-8 -3.1,-18.1c0,-17.4 -0.5,-16.7 43.4,-61c20.1,-20.4 36.7,-37 36.8,-37c0.1,-0 0.7,4.6 1.2,10.3Z" style="fill-rule:nonzero;"/></svg>