<?xml version="1.0" encoding="UTF-8" standalone="no"?>
<!DOCTYPE svg PUBLIC "-//W3C//DTD SVG 1.1//EN" "http://www.w3.org/Graphics/SVG/1.1/DTD/svg11.dtd">
<svg width="100%" height="100%" viewBox="0 0 100 100" version="1.1" xmlns="http://www.w3.org/2000/svg" xmlns:xlink="http://www.w3.org/1999/xlink" xml:space="preserve" xmlns:serif="http://www.serif.com/" style="fill-rule:evenodd;clip-rule:evenodd;stroke-linejoin:round;stroke-miterlimit:2;">
    <g transform="matrix(1,0,0,2.81347,0,-90.6724)">
        <rect x="31.645" y="49.164" width="36.709" height="1.671"/>
    </g>
    <g transform="matrix(6.12323e-17,1,-2.81347,1.72275e-16,190.671,-5.55209e-15)">
        <rect x="31.645" y="49.164" width="36.709" height="1.671"/>
    </g>
    <path d="M79.394,20.07C80.36,17.55 82.804,15.758 85.663,15.758C89.368,15.758 92.376,18.766 92.376,22.47C92.376,24.738 91.248,26.745 89.524,27.96C91.169,28.428 92.376,29.943 92.376,31.737L92.376,39.59C92.376,41.757 90.616,43.516 88.449,43.516L69.961,43.516C67.835,43.516 66.101,41.823 66.036,39.712L59.01,43.212C58.863,43.285 58.689,43.277 58.55,43.191C58.41,43.105 58.326,42.952 58.326,42.788L58.326,28.541C58.326,28.377 58.411,28.224 58.55,28.137C58.69,28.051 58.865,28.043 59.012,28.116L66.036,31.615C66.093,29.774 67.419,28.251 69.168,27.892C67.498,26.67 66.412,24.696 66.412,22.47C66.412,18.766 69.42,15.758 73.124,15.758C75.983,15.758 78.427,17.55 79.394,20.07ZM79.394,24.87C78.944,26.045 78.173,27.061 77.188,27.811L81.6,27.811C80.615,27.061 79.844,26.045 79.394,24.87Z"/>
</svg>
