<?xml version="1.0" encoding="UTF-8" standalone="no"?><!DOCTYPE svg PUBLIC "-//W3C//DTD SVG 1.1//EN" "http://www.w3.org/Graphics/SVG/1.1/DTD/svg11.dtd"><svg width="100" height="100" viewBox="0 0 1024 1024" version="1.1" xmlns="http://www.w3.org/2000/svg" xmlns:xlink="http://www.w3.org/1999/xlink" xml:space="preserve" xmlns:serif="http://www.serif.com/" style="fill-rule:evenodd;clip-rule:evenodd;stroke-linejoin:round;stroke-miterlimit:2;"><rect x="503.443" y="324.048" width="17.114" height="375.905"/><path d="M699.952,520.557l0,-17.114l-375.904,-0l-0,17.114l375.904,0Z"/><path d="M812.992,205.516c9.896,-25.809 34.923,-44.155 64.201,-44.155c37.935,0 68.733,30.799 68.733,68.733c0,23.224 -11.542,43.773 -29.201,56.22c16.848,4.79 29.201,20.303 29.201,38.678l0,80.408c0,22.189 -18.014,40.204 -40.204,40.204l-189.326,-0c-21.77,-0 -39.522,-17.341 -40.185,-38.949l-71.948,35.837c-1.503,0.749 -3.286,0.666 -4.713,-0.217c-1.427,-0.884 -2.296,-2.443 -2.296,-4.122l0,-145.893c0,-1.683 0.871,-3.247 2.303,-4.133c1.431,-0.886 3.219,-0.969 4.726,-0.218l71.928,35.828c0.579,-18.85 14.16,-34.451 32.067,-38.128c-17.103,-12.508 -28.22,-32.723 -28.22,-55.515c-0,-37.934 30.798,-68.733 68.733,-68.733c29.278,0 54.305,18.346 64.201,44.155Zm0,49.157c-4.61,12.024 -12.505,22.429 -22.587,30.114l45.175,0c-10.08,-7.684 -17.976,-18.089 -22.588,-30.114Z"/></svg>