<?xml version="1.0" encoding="UTF-8" standalone="no"?>
<!DOCTYPE svg PUBLIC "-//W3C//DTD SVG 1.1//EN" "http://www.w3.org/Graphics/SVG/1.1/DTD/svg11.dtd">
<svg width="100%" height="100%" viewBox="0 0 1024 1024" version="1.1" xmlns="http://www.w3.org/2000/svg" xmlns:xlink="http://www.w3.org/1999/xlink" xml:space="preserve" xmlns:serif="http://www.serif.com/" style="fill-rule:evenodd;clip-rule:evenodd;stroke-linejoin:round;stroke-miterlimit:2;">
    <rect x="487.918" y="324.045" width="48.141" height="375.9"/>
    <rect x="324.045" y="487.926" width="375.9" height="48.141"/>
    <path d="M812.995,205.517C822.886,179.712 847.913,161.362 877.189,161.362C915.128,161.362 945.93,192.164 945.93,230.093C945.93,253.317 934.38,273.869 916.726,286.31C933.571,291.103 945.93,306.616 945.93,324.987L945.93,405.402C945.93,427.592 927.908,445.604 905.718,445.604L716.401,445.604C694.63,445.604 676.874,428.268 676.209,406.651L604.262,442.491C602.757,443.238 600.975,443.156 599.552,442.276C598.118,441.395 597.258,439.828 597.258,438.149L597.258,292.26C597.258,290.58 598.129,289.014 599.552,288.123C600.986,287.242 602.778,287.16 604.283,287.908L676.209,323.738C676.792,304.886 690.371,289.29 708.28,285.614C691.18,273.101 680.059,252.887 680.059,230.093C680.059,192.164 710.861,161.362 748.79,161.362C778.066,161.362 803.092,179.712 812.995,205.517ZM812.995,254.669C808.387,266.701 800.492,277.105 790.405,284.785L835.584,284.785C825.498,277.105 817.603,266.701 812.995,254.669Z"/>
</svg>
