<?xml version="1.0" encoding="UTF-8" standalone="no"?><!DOCTYPE svg PUBLIC "-//W3C//DTD SVG 1.1//EN" "http://www.w3.org/Graphics/SVG/1.1/DTD/svg11.dtd"><svg width="100%" height="100%" viewBox="0 0 48 48" version="1.1" xmlns="http://www.w3.org/2000/svg" xmlns:xlink="http://www.w3.org/1999/xlink" xml:space="preserve" xmlns:serif="http://www.serif.com/" style="fill-rule:evenodd;clip-rule:evenodd;stroke-linejoin:round;stroke-miterlimit:2;"><path d="M32,2l-24,0c-2.21,0 -4,1.79 -4,4l0,28l4,0l0,-28l24,0l0,-4Zm6,8l-22,0c-2.21,0 -4,1.79 -4,4l0,28c0,2.21 1.79,4 4,4l22,0c2.21,0 4,-1.79 4,-4l0,-28c0,-2.21 -1.79,-4 -4,-4Zm0,32l-22,0l0,-28l22,0l0,28Z" style="fill-rule:nonzero;"/></svg>