<?xml version="1.0" encoding="UTF-8" standalone="no"?><!DOCTYPE svg PUBLIC "-//W3C//DTD SVG 1.1//EN" "http://www.w3.org/Graphics/SVG/1.1/DTD/svg11.dtd"><svg width="100%" height="100%" viewBox="0 0 1024 1024" version="1.1" xmlns="http://www.w3.org/2000/svg" xmlns:xlink="http://www.w3.org/1999/xlink" xml:space="preserve" xmlns:serif="http://www.serif.com/" style="fill-rule:evenodd;clip-rule:evenodd;stroke-linecap:round;stroke-linejoin:round;stroke-miterlimit:1.5;"><path d="M448.481,250.988l-31.574,-148.934l-109.955,-43.415" style="fill:none;stroke:#000;stroke-width:28.63px;"/><path d="M575.519,250.988l31.574,-148.934l109.955,-43.415" style="fill:none;stroke:#000;stroke-width:28.63px;"/><path d="M409.679,470.388l-162.586,-47.93l-124.055,79.884" style="fill:none;stroke:#000;stroke-width:28.63px;"/><path d="M409.679,602.901l-162.586,-47.93l-124.055,79.883" style="fill:none;stroke:#000;stroke-width:28.63px;"/><path d="M409.679,741.992l-162.586,-47.93l-124.055,79.883" style="fill:none;stroke:#000;stroke-width:28.63px;"/><path d="M614.321,470.388l162.586,-47.93l124.055,79.884" style="fill:none;stroke:#000;stroke-width:28.63px;"/><path d="M614.321,602.901l162.586,-47.93l124.055,79.883" style="fill:none;stroke:#000;stroke-width:28.63px;"/><path d="M614.321,741.992l162.586,-47.93l124.055,79.883" style="fill:none;stroke:#000;stroke-width:28.63px;"/><path d="M644.811,385.831c8.31,-1.997 16.718,2.908 19.069,11.125c15.611,56.154 24.558,121.679 24.558,191.632c0,207.947 -79.059,376.773 -176.438,376.773c-97.379,0 -176.438,-168.826 -176.438,-376.773c0,-69.952 8.947,-135.478 24.528,-191.64c2.354,-8.23 10.773,-13.145 19.097,-11.149c30.055,6.449 68.319,8.052 125.432,8.172l7.381,0.008c61.221,0 101.474,-1.457 132.811,-8.148Zm-259.736,-9.857c-4.47,-1.021 -8.285,-3.917 -10.47,-7.949c-2.184,-4.033 -2.527,-8.81 -0.94,-13.113c32.298,-87.158 82.282,-143.097 138.335,-143.097c56.053,0 106.036,55.939 138.367,143.085c1.591,4.314 1.246,9.104 -0.946,13.145c-2.191,4.042 -6.018,6.944 -10.501,7.965c-28.933,5.678 -65.689,6.986 -119.718,7.086l-7.202,0.007c-58.001,0 -96.729,-1.164 -126.925,-7.129Z"/></svg>