<?xml version="1.0" encoding="UTF-8" standalone="no"?><!DOCTYPE svg PUBLIC "-//W3C//DTD SVG 1.1//EN" "http://www.w3.org/Graphics/SVG/1.1/DTD/svg11.dtd"><svg width="100%" height="100%" viewBox="0 0 1024 1024" version="1.1" xmlns="http://www.w3.org/2000/svg" xmlns:xlink="http://www.w3.org/1999/xlink" xml:space="preserve" xmlns:serif="http://www.serif.com/" style="fill-rule:evenodd;clip-rule:evenodd;stroke-linecap:round;stroke-linejoin:round;stroke-miterlimit:1.5;"><path d="M260.326,632.269l-122.342,0" style="fill:none;stroke:#000;stroke-width:56.44px;"/><path d="M278.028,510.989c-33.687,-9.214 -70.957,-33.692 -91.34,-93.35" style="fill:none;stroke:#000;stroke-width:56.44px;"/><path d="M291.993,750.509c-36.818,6.056 -82.051,28.329 -105.305,96.391" style="fill:none;stroke:#000;stroke-width:56.44px;"/><path d="M763.674,632.269l122.342,0" style="fill:none;stroke:#000;stroke-width:56.44px;"/><path d="M745.972,510.989c33.687,-9.214 70.957,-33.692 91.34,-93.35" style="fill:none;stroke:#000;stroke-width:56.44px;"/><path d="M732.007,750.509c36.818,6.056 82.051,28.329 105.305,96.391" style="fill:none;stroke:#000;stroke-width:56.44px;"/><path d="M478.491,880.053c-117.937,-17.839 -208.862,-128.452 -208.862,-262.064c-0,-146.025 108.603,-264.578 242.371,-264.578c133.768,0 242.371,118.553 242.371,264.578c0,133.612 -90.925,244.225 -208.862,262.064l-33.509,-354.156l-33.509,354.156Z" style="fill:none;stroke:#000;stroke-width:46.93px;"/><path d="M514.371,578.691c-0.782,0.01 -1.576,0.015 -2.371,0.015c-0.795,-0 -1.589,-0.005 -2.371,-0.015l2.371,-25.054l2.371,25.054Zm-182.98,-156.743c-1.181,-8.37 -1.792,-16.936 -1.792,-25.644c-0,-100.67 81.731,-182.401 182.401,-182.401c100.67,-0 182.401,81.731 182.401,182.401c0,8.708 -0.611,17.274 -1.792,25.644c-49.12,-44.164 -112.048,-70.705 -180.609,-70.705c-68.561,-0 -131.489,26.541 -180.609,70.705Z"/><circle cx="394.503" cy="732.975" r="31.082"/><circle cx="386.073" cy="592.787" r="38.146"/><circle cx="431.598" cy="476.444" r="27.903"/><circle cx="629.497" cy="732.975" r="31.082"/><circle cx="637.927" cy="592.787" r="38.146"/><circle cx="592.402" cy="476.444" r="27.903"/><path d="M447.622,239.868c-0,-0 11.871,-88.637 -110.005,-147.2" style="fill:none;stroke:#000;stroke-width:32.12px;"/><circle cx="337.617" cy="92.668" r="37.87"/><path d="M576.378,239.868c0,-0 -11.871,-88.637 110.005,-147.2" style="fill:none;stroke:#000;stroke-width:32.12px;"/><circle cx="686.383" cy="92.668" r="37.87"/><path d="M481.478,850.557l62.105,-0l-31.514,-303.296l-30.591,303.296Z"/></svg>