<?xml version="1.0" encoding="UTF-8" standalone="no"?>
<!DOCTYPE svg PUBLIC "-//W3C//DTD SVG 1.1//EN" "http://www.w3.org/Graphics/SVG/1.1/DTD/svg11.dtd">
<svg width="100%" height="100%" viewBox="0 0 1024 1024" version="1.1" xmlns="http://www.w3.org/2000/svg" xmlns:xlink="http://www.w3.org/1999/xlink" xml:space="preserve" xmlns:serif="http://www.serif.com/" style="fill-rule:evenodd;clip-rule:evenodd;stroke-linecap:round;stroke-linejoin:round;stroke-miterlimit:1.5;">
    <path d="M819.717,374.949L939.96,512" style="fill:none;stroke:black;stroke-width:71.71px;"/>
    <g transform="matrix(1,0,0,-1,0,1024)">
        <path d="M819.717,374.949L939.96,512" style="fill:none;stroke:black;stroke-width:71.71px;"/>
    </g>
    <g transform="matrix(-2,2.55289e-16,-1.12105e-16,-1,1963.96,1024)">
        <path d="M512,512L939.96,512" style="fill:none;stroke:black;stroke-width:45.35px;"/>
    </g>
    <g transform="matrix(-1,1.22465e-16,-1.22465e-16,-1,1024,1024)">
        <path d="M819.717,374.949L939.96,512" style="fill:none;stroke:black;stroke-width:71.71px;"/>
    </g>
    <g transform="matrix(-1,1.22465e-16,1.22465e-16,1,1024,-1.13687e-13)">
        <path d="M819.717,374.949L939.96,512" style="fill:none;stroke:black;stroke-width:71.71px;"/>
    </g>
    <g transform="matrix(6.12323e-17,1,-1,6.12323e-17,1024,-2.27374e-13)">
        <path d="M819.717,374.949L939.96,512" style="fill:none;stroke:black;stroke-width:71.71px;"/>
    </g>
    <g transform="matrix(6.12323e-17,1,1,-6.12323e-17,2.27374e-13,-1.64672e-13)">
        <path d="M819.717,374.949L939.96,512" style="fill:none;stroke:black;stroke-width:71.71px;"/>
    </g>
    <g transform="matrix(-3.77754e-16,-2,1,-1.73337e-16,5.68434e-13,1963.96)">
        <path d="M512,512L939.96,512" style="fill:none;stroke:black;stroke-width:45.35px;"/>
    </g>
    <g transform="matrix(-1.83697e-16,-1,1,-1.83697e-16,4.54747e-13,1024)">
        <path d="M819.717,374.949L939.96,512" style="fill:none;stroke:black;stroke-width:71.71px;"/>
    </g>
    <g transform="matrix(-1.83697e-16,-1,-1,1.83697e-16,1024,1024)">
        <path d="M819.717,374.949L939.96,512" style="fill:none;stroke:black;stroke-width:71.71px;"/>
    </g>
</svg>
