<?xml version="1.0" encoding="UTF-8" standalone="no"?><!DOCTYPE svg PUBLIC "-//W3C//DTD SVG 1.1//EN" "http://www.w3.org/Graphics/SVG/1.1/DTD/svg11.dtd"><svg width="100%" height="100%" viewBox="0 0 1792 1792" version="1.1" xmlns="http://www.w3.org/2000/svg" xmlns:xlink="http://www.w3.org/1999/xlink" xml:space="preserve" xmlns:serif="http://www.serif.com/" style="fill-rule:evenodd;clip-rule:evenodd;"><path id="svg_1" d="M842.935,1356.43l297.87,-340.423l-680.845,0l-297.87,340.423l680.845,-0Zm898.041,-954.779c8.865,20.095 11.673,41.223 8.422,63.386c-3.25,22.163 -12.263,41.519 -27.039,58.067l-794.318,907.793c-22.459,26.004 -50.827,39.007 -85.106,39.007l-680.845,-0c-22.458,-0 -42.996,-6.058 -61.612,-18.174c-18.617,-12.116 -32.654,-28.221 -42.11,-48.315c-8.865,-20.095 -11.672,-41.223 -8.422,-63.386c3.251,-22.163 12.264,-41.519 27.039,-58.067l794.319,-907.793c22.458,-26.004 50.827,-39.007 85.105,-39.007l680.845,0c22.458,0 42.996,6.058 61.613,18.174c18.617,12.116 32.653,28.221 42.109,48.315l0,0Z" style="fill-rule:nonzero;"/><path id="svg_8" d="M270.504,1445.44l1324.71,-0" style="fill:none;fill-rule:nonzero;stroke:#000;stroke-width:50px;"/></svg>