<?xml version="1.0" encoding="UTF-8" standalone="no"?><!DOCTYPE svg PUBLIC "-//W3C//DTD SVG 1.1//EN" "http://www.w3.org/Graphics/SVG/1.1/DTD/svg11.dtd"><svg width="100%" height="100%" viewBox="0 0 1024 1024" version="1.1" xmlns="http://www.w3.org/2000/svg" xmlns:xlink="http://www.w3.org/1999/xlink" xml:space="preserve" xmlns:serif="http://www.serif.com/" style="fill-rule:evenodd;clip-rule:evenodd;stroke-linejoin:round;stroke-miterlimit:2;"><path d="M512,34.596c29.223,0 52.949,23.726 52.949,52.949c-0,29.224 -52.949,252.084 -52.949,252.084c0,-0 -52.949,-222.86 -52.949,-252.084c0,-29.223 23.726,-52.949 52.949,-52.949Z"/><path d="M849.575,174.425c20.664,20.664 20.664,54.217 0,74.881c-20.664,20.664 -215.69,140.809 -215.69,140.809c-0,0 120.145,-195.026 140.809,-215.69c20.664,-20.664 54.217,-20.664 74.881,-0Z"/><path d="M989.404,512c-0,29.223 -23.726,52.949 -52.949,52.949c-29.224,-0 -252.084,-52.949 -252.084,-52.949c0,-0 222.86,-52.949 252.084,-52.949c29.223,0 52.949,23.726 52.949,52.949Z"/><path d="M849.575,849.575c-20.664,20.664 -54.217,20.664 -74.881,0c-20.664,-20.664 -140.809,-215.69 -140.809,-215.69c-0,-0 195.026,120.145 215.69,140.809c20.664,20.664 20.664,54.217 0,74.881Z"/><path d="M512,989.404c-29.223,-0 -52.949,-23.726 -52.949,-52.949c0,-29.224 52.949,-252.084 52.949,-252.084c0,0 52.949,222.86 52.949,252.084c-0,29.223 -23.726,52.949 -52.949,52.949Z"/><path d="M174.425,849.575c-20.664,-20.664 -20.664,-54.217 -0,-74.881c20.664,-20.664 215.69,-140.809 215.69,-140.809c0,-0 -120.145,195.026 -140.809,215.69c-20.664,20.664 -54.217,20.664 -74.881,0Z"/><path d="M34.596,512c0,-29.223 23.726,-52.949 52.949,-52.949c29.224,0 252.084,52.949 252.084,52.949c-0,0 -222.86,52.949 -252.084,52.949c-29.223,-0 -52.949,-23.726 -52.949,-52.949Z"/><path d="M174.425,174.425c20.664,-20.664 54.217,-20.664 74.881,-0c20.664,20.664 140.809,215.69 140.809,215.69c0,0 -195.026,-120.145 -215.69,-140.809c-20.664,-20.664 -20.664,-54.217 -0,-74.881Z"/><circle cx="512" cy="512" r="108.812"/></svg>