<?xml version="1.0" encoding="UTF-8" standalone="no"?><!DOCTYPE svg PUBLIC "-//W3C//DTD SVG 1.1//EN" "http://www.w3.org/Graphics/SVG/1.1/DTD/svg11.dtd"><svg width="100%" height="100%" viewBox="0 0 256 256" version="1.1" xmlns="http://www.w3.org/2000/svg" xmlns:xlink="http://www.w3.org/1999/xlink" xml:space="preserve" xmlns:serif="http://www.serif.com/" style="fill-rule:evenodd;clip-rule:evenodd;stroke-linejoin:round;stroke-miterlimit:2;"><path d="M205.3,9.5c-2.9,0.8 -7.1,2.4 -9.3,3.5c-7.6,3.9 -29.8,21.5 -48.7,38.7c-9.7,8.9 -10.3,9.3 -14.7,9.3c-7.6,0 -14.8,3.4 -21.9,10.3c-8.7,8.4 -11.1,13.3 -11.2,22.2c-0,4.5 0.7,8.7 1.9,11.8l1.9,4.8l-37.1,37.2c-40.4,40.5 -42.2,42.7 -42.2,53.1c-0,5.2 -2.8,10.9 -9.5,19.1c-6.8,8.5 -8,13.7 -4.6,20.3c2.2,4.3 8.4,8.2 12.9,8.2c4.6,0 7.5,-1.4 13.1,-6.4c7.1,-6.3 12.3,-8.7 20.9,-9.7c4.7,-0.5 8.8,-1.7 11.3,-3.1c2.1,-1.3 20.6,-18.8 41.2,-39l37.4,-36.7l5.2,1.9c7.2,2.8 16.2,2.6 22.6,-0.4c5.5,-2.5 16.1,-12.9 19,-18.6c1.1,-2.1 2,-6.6 2.3,-11l0.5,-7.4l7.2,-8.1c3.9,-4.4 14.4,-17.1 23.2,-28.2c17.5,-21.9 20,-26.4 21,-38.4c1,-11.7 -4.3,-23.9 -12.7,-29.5c-7.7,-5.1 -19.5,-6.6 -29.7,-3.9Zm-102.1,169.3c-18,17.8 -35.3,34.1 -38.6,36.3c-5,3.4 -6.6,3.9 -11.4,3.9c-6,-0 -8.6,1.2 -21.8,10.2c-11.6,7.8 -12,6.8 -2.9,-7c7.6,-11.7 8.7,-14.4 7.9,-18.8c-1.2,-6.7 2.7,-11.6 39.2,-48.2l34.1,-34.3l26.2,25.6l-32.7,32.3Z" style="fill-rule:nonzero;"/></svg>