<?xml version="1.0" encoding="UTF-8" standalone="no"?><!DOCTYPE svg PUBLIC "-//W3C//DTD SVG 1.1//EN" "http://www.w3.org/Graphics/SVG/1.1/DTD/svg11.dtd"><svg width="100%" height="100%" viewBox="0 0 1024 1024" version="1.1" xmlns="http://www.w3.org/2000/svg" xmlns:xlink="http://www.w3.org/1999/xlink" xml:space="preserve" xmlns:serif="http://www.serif.com/" style="fill-rule:evenodd;clip-rule:evenodd;stroke-linejoin:round;stroke-miterlimit:2;"><path d="M578.126,42.761l26.724,118.309l89.64,37.13l101.552,-64.127l94.518,92.883l-64.76,102.554l37.13,89.64l117.153,26.463l1.156,132.513l-118.309,26.724l-37.13,89.64l64.127,101.552l-92.883,94.518l-102.554,-64.76l-89.64,37.13l-26.463,117.153l-132.513,1.156l-26.724,-118.309l-89.64,-37.13l-101.552,64.127l-94.518,-92.883l64.76,-102.554l-37.13,-89.64l-117.153,-26.463l-1.156,-132.513l118.309,-26.724l37.13,-89.64l-64.127,-101.552l92.883,-94.518l102.554,64.76l89.64,-37.13l26.463,-117.153l132.513,-1.156Zm-66.126,310.938c87.369,0 158.301,70.932 158.301,158.301c-0,87.369 -70.932,158.301 -158.301,158.301c-87.369,-0 -158.301,-70.932 -158.301,-158.301c0,-87.369 70.932,-158.301 158.301,-158.301Z"/></svg>