<?xml version="1.0" encoding="UTF-8" standalone="no"?>
<!DOCTYPE svg PUBLIC "-//W3C//DTD SVG 1.1//EN" "http://www.w3.org/Graphics/SVG/1.1/DTD/svg11.dtd">
<svg width="100%" height="100%" viewBox="0 0 1024 1024" version="1.1" xmlns="http://www.w3.org/2000/svg" xmlns:xlink="http://www.w3.org/1999/xlink" xml:space="preserve" xmlns:serif="http://www.serif.com/" style="fill-rule:evenodd;clip-rule:evenodd;stroke-linejoin:round;stroke-miterlimit:2;">
    <g transform="matrix(1.95644,0,0,1.95644,-51.4545,11.1516)">
        <path d="M288,0C146.6,0 32,114.6 32,256C32,397.4 146.6,512 288,512C429.4,512 544,397.4 544,256C544,114.6 429.4,0 288,0ZM473.9,283.2L453.4,273.1C449.107,271.26 445.443,268.209 442.86,264.321L424.86,237.321C419.489,229.26 419.489,218.761 424.86,210.701L444.45,181.321C446.77,177.846 449.956,175.038 453.69,173.171C460.544,169.749 467.93,167.708 475.46,166.472C488.5,193.6 496,223.9 496,256C496,268.63 494.686,280.94 492.518,292.96L473.9,283.2ZM207.5,64.25L216.883,73.184C221.629,77.704 227.023,81.491 232.883,84.424C236.4,86.21 240.6,86.6 244.4,85.49C251.4,83.38 256.1,76.93 256,69.66C256.008,63.297 260.828,57.97 267.16,57.33C269.689,57.061 272.211,56.85 274.74,56.68C278.295,56.453 281.773,57.77 284.289,60.289L308.689,84.689C308.691,84.691 308.687,84.689 308.689,84.689C314.935,90.939 314.937,101.069 308.687,107.319L293.667,122.349C290.546,125.472 290.546,130.535 293.667,133.659L298.356,138.348C301.479,141.471 301.479,146.534 298.356,149.658L290.356,157.658C288.9,159.2 286.8,160 284.7,160L275.7,160C273.6,160 271.6,160.9 270.1,162.3L260.2,172C257.7,174.4 257.1,178.2 258.6,181.3L274.19,212.49C274.8,213.6 275.1,214.8 275.1,216.1C275.102,220.52 271.522,224.102 267.104,224.106L261.4,224.106C259.468,224.092 257.609,223.381 256.16,222.106L246.9,214C242.625,210.289 236.71,209.115 231.34,210.91L200.17,221.3C197.264,222.312 194.856,224.4 193.445,227.136C190.408,233.027 192.72,240.266 198.609,243.296L209.689,248.837C219.1,253.5 229.5,256 240,256C250.52,256 262.59,283.29 272,288L338.76,288C347.246,287.996 355.39,291.363 361.39,297.359L375.1,311C380.829,316.727 384.041,324.5 384.03,332.6C384.04,344.99 379.1,356.87 370.31,365.6C366.41,369.481 362.32,373.549 359,376.88C356.018,379.841 353.869,383.534 352.77,387.59C351.26,393.25 350,398.97 348,404.46L333.89,446.09C331.933,454.186 325.341,460.27 317.17,461.71C315.791,461.905 314.438,462.173 313.051,462.341C312.529,462.407 312.012,462.487 311.489,462.55C310.663,462.65 309.833,462.698 309.001,462.698C297.401,462.7 288.001,453.298 288.001,442.598L288.001,429.528C289.69,416.908 280.37,393.278 265.371,378.278C259.4,371.4 255.1,363.2 256,354.8L256,322.8C256.031,311.16 249.723,300.43 239.54,294.8C225.17,286.849 204.73,275.74 190.73,268.69C179.3,262.8 168.6,255.5 159.1,246.9L158.3,246.2C151.5,240 145.4,233 140.2,225.4C132.9,214.7 116.3,190 104.6,172.7C103,170.4 102.2,167.8 101.1,165.4C123.1,120.1 160.9,83.88 207.5,64.25Z" style="fill:rgb(0,83,255);fill-rule:nonzero;"/>
    </g>
</svg>
