<?xml version="1.0" encoding="UTF-8" standalone="no"?><!DOCTYPE svg PUBLIC "-//W3C//DTD SVG 1.1//EN" "http://www.w3.org/Graphics/SVG/1.1/DTD/svg11.dtd"><svg width="100%" height="100%" viewBox="0 0 1024 1024" version="1.1" xmlns="http://www.w3.org/2000/svg" xmlns:xlink="http://www.w3.org/1999/xlink" xml:space="preserve" xmlns:serif="http://www.serif.com/" style="fill-rule:evenodd;clip-rule:evenodd;stroke-linejoin:round;stroke-miterlimit:2;"><path d="M922.492,133.354c-0,-17.588 -14.258,-31.846 -31.846,-31.846l-757.292,0c-17.588,0 -31.846,14.258 -31.846,31.846l0,128.045c0,17.588 14.258,31.846 31.846,31.846l757.292,-0c17.588,-0 31.846,-14.258 31.846,-31.846l-0,-128.045Z"/><path d="M922.492,447.977c-0,-17.588 -14.258,-31.845 -31.846,-31.845l-757.292,-0c-17.588,-0 -31.846,14.257 -31.846,31.845l0,128.046c0,17.588 14.258,31.845 31.846,31.845l757.292,0c17.588,0 31.846,-14.257 31.846,-31.845l-0,-128.046Z"/><path d="M922.492,762.601c-0,-17.588 -14.258,-31.846 -31.846,-31.846l-757.292,0c-17.588,0 -31.846,14.258 -31.846,31.846l0,128.045c0,17.588 14.258,31.846 31.846,31.846l757.292,-0c17.588,-0 31.846,-14.258 31.846,-31.846l-0,-128.045Z"/></svg>