<?xml version="1.0" encoding="UTF-8" standalone="no"?><!DOCTYPE svg PUBLIC "-//W3C//DTD SVG 1.1//EN" "http://www.w3.org/Graphics/SVG/1.1/DTD/svg11.dtd"><svg width="100%" height="100%" viewBox="0 0 48 48" version="1.1" xmlns="http://www.w3.org/2000/svg" xmlns:xlink="http://www.w3.org/1999/xlink" xml:space="preserve" xmlns:serif="http://www.serif.com/" style="fill-rule:evenodd;clip-rule:evenodd;stroke-linejoin:round;stroke-miterlimit:2;"><path d="M24,16c-4.42,0 -8,3.58 -8,8c0,4.42 3.58,8 8,8c4.42,0 8,-3.58 8,-8c0,-4.42 -3.58,-8 -8,-8Zm-14,14l-4,0l0,8c0,2.21 1.79,4 4,4l8,0l0,-4l-8,0l0,-8Zm0,-20l8,0l0,-4l-8,0c-2.21,0 -4,1.79 -4,4l0,8l4,0l0,-8Zm28,-4l-8,0l0,4l8,0l0,8l4,0l0,-8c0,-2.21 -1.79,-4 -4,-4Zm0,32l-8,0l0,4l8,0c2.21,0 4,-1.79 4,-4l0,-8l-4,0l0,8Z" style="fill-rule:nonzero;"/></svg>