<?xml version="1.0" encoding="UTF-8" standalone="no"?>
<!DOCTYPE svg PUBLIC "-//W3C//DTD SVG 1.1//EN" "http://www.w3.org/Graphics/SVG/1.1/DTD/svg11.dtd">
<svg width="100%" height="100%" viewBox="0 0 1024 1024" version="1.1" xmlns="http://www.w3.org/2000/svg" xmlns:xlink="http://www.w3.org/1999/xlink" xml:space="preserve" xmlns:serif="http://www.serif.com/" style="fill-rule:evenodd;clip-rule:evenodd;stroke-linejoin:round;stroke-miterlimit:2;">
    <path d="M512,341.333C606.293,341.333 682.667,417.707 682.667,512C682.667,606.293 606.293,682.667 512,682.667C417.707,682.667 341.333,606.293 341.333,512C341.333,417.707 417.707,341.333 512,341.333ZM213.333,640L213.333,810.667L384,810.667L384,896L213.333,896C166.187,896 128,857.813 128,810.667L128,640L213.333,640ZM213.333,213.333L213.333,384L128,384L128,213.333C128,166.187 166.187,128 213.333,128L384,128L384,213.333L213.333,213.333ZM810.667,128C857.813,128 896,166.187 896,213.333L896,384L810.667,384L810.667,213.333L640,213.333L640,128L810.667,128ZM810.667,810.667L810.667,640L896,640L896,810.667C896,857.813 857.813,896 810.667,896L640,896L640,810.667L810.667,810.667Z"/>
</svg>
