<?xml version="1.0" encoding="UTF-8" standalone="no"?>
<!DOCTYPE svg PUBLIC "-//W3C//DTD SVG 1.1//EN" "http://www.w3.org/Graphics/SVG/1.1/DTD/svg11.dtd">
<svg width="100%" height="100%" viewBox="0 0 1024 1024" version="1.1" xmlns="http://www.w3.org/2000/svg" xmlns:xlink="http://www.w3.org/1999/xlink" xml:space="preserve" xmlns:serif="http://www.serif.com/" style="fill-rule:evenodd;clip-rule:evenodd;stroke-linejoin:round;stroke-miterlimit:2;">
    <path d="M502.26,8.355C527.742,8.355 551.257,15.006 572.804,28.309C594.35,41.613 610.932,59.693 622.551,82.553C629.672,81.053 637.542,80.304 646.159,80.304C683.258,80.304 715.017,93.514 741.436,119.932C767.855,146.351 781.064,178.11 781.064,215.209L781.064,224.765C820.411,222.516 854.233,234.508 882.524,260.74C910.814,286.971 924.963,319.76 924.963,359.108L924.963,639.036C924.963,654.027 923.462,669.575 920.466,685.69L877.746,912.78C872.501,942.386 858.168,966.928 834.745,986.416C811.322,1005.9 784.437,1015.64 754.083,1015.64L367.355,1015.64C344.871,1015.64 323.417,1010.49 302.994,1000.19C282.572,989.884 265.615,975.921 252.124,958.311L36.276,670.513C17.165,645.033 7.609,616.175 7.609,583.949C7.609,544.227 21.661,510.314 49.767,482.208C77.872,454.103 111.785,440.051 151.507,440.051C180.737,440.051 204.72,446.421 223.457,459.162L223.457,215.209C223.457,178.11 236.666,146.351 263.085,119.932C289.504,93.514 321.263,80.304 358.362,80.304C366.98,80.304 374.85,81.053 381.97,82.553C393.587,59.693 410.169,41.613 431.716,28.309C453.263,15.006 476.779,8.355 502.26,8.355ZM502.26,80.304C485.022,80.304 470.22,86.487 457.854,98.854C445.488,111.22 439.305,126.022 439.305,143.26L439.305,512L421.317,512L421.317,215.209C421.317,197.971 415.134,183.169 402.768,170.803C390.402,158.437 375.6,152.253 358.362,152.253C341.124,152.253 326.322,158.437 313.956,170.803C301.589,183.169 295.406,197.971 295.406,215.209L295.406,655.899L208.842,540.667C194.602,521.556 175.491,512 151.507,512C131.647,512 114.69,519.026 100.637,533.079C86.584,547.132 79.558,564.088 79.558,583.949C79.558,600.065 84.43,614.488 94.173,627.231L310.021,915.029C324.261,934.14 343.372,943.696 367.355,943.696L754.083,943.696C766.826,943.696 778.253,939.576 788.371,931.33C798.489,923.084 804.858,912.595 807.483,899.852L850.203,672.2C852.075,660.21 853.013,649.153 853.013,639.036L853.013,359.108C853.013,341.87 846.83,327.068 834.464,314.701C822.098,302.335 807.297,296.152 790.058,296.152C772.818,296.152 758.018,302.335 745.651,314.701C733.285,327.068 727.102,341.87 727.102,359.108L727.102,512L709.115,512L709.115,215.209C709.115,197.971 702.932,183.169 690.565,170.803C678.199,158.437 663.399,152.253 646.159,152.253C628.919,152.253 614.119,158.437 601.753,170.803C589.386,183.169 583.203,197.971 583.203,215.209L583.203,512L565.216,512L565.216,143.26C565.216,126.022 559.033,111.22 546.667,98.854C534.3,86.487 519.498,80.304 502.26,80.304Z"/>
</svg>
