<?xml version="1.0" encoding="UTF-8" standalone="no"?><!DOCTYPE svg PUBLIC "-//W3C//DTD SVG 1.1//EN" "http://www.w3.org/Graphics/SVG/1.1/DTD/svg11.dtd"><svg width="100%" height="100%" viewBox="0 0 1024 1024" version="1.1" xmlns="http://www.w3.org/2000/svg" xmlns:xlink="http://www.w3.org/1999/xlink" xml:space="preserve" xmlns:serif="http://www.serif.com/" style="fill-rule:evenodd;clip-rule:evenodd;stroke-linecap:round;stroke-linejoin:round;stroke-miterlimit:1.5;"><path d="M42.238,794.66l930.53,0" style="fill:none;stroke:#000;stroke-width:44.32px;"/><path d="M42.238,254.137c229.095,39.87 409.761,320.177 409.761,320.177c53.173,-153.372 149.713,-231.781 149.713,-231.781" style="fill:none;stroke:#000;stroke-width:44.32px;"/><path d="M714.102,537.632c0,-0 -140.293,47.759 -265.187,257.028c0,-0 -236.978,-472.552 -406.677,-540.523" style="fill:none;stroke:#000;stroke-width:44.32px;"/><path d="M787.24,160.58c111.52,0 202.06,90.54 202.06,202.06c-0,111.52 -90.54,202.06 -202.06,202.06c-111.52,-0 -202.06,-90.54 -202.06,-202.06c0,-111.52 90.54,-202.06 202.06,-202.06Zm-73.138,82.684c23.056,0 41.775,18.719 41.775,41.775c0,23.057 -18.719,41.776 -41.775,41.776c-23.056,-0 -41.775,-18.719 -41.775,-41.776c-0,-23.056 18.719,-41.775 41.775,-41.775Z"/></svg>