<?xml version="1.0" encoding="UTF-8" standalone="no"?><!DOCTYPE svg PUBLIC "-//W3C//DTD SVG 1.1//EN" "http://www.w3.org/Graphics/SVG/1.1/DTD/svg11.dtd"><svg width="100%" height="100%" viewBox="0 0 1024 1024" version="1.1" xmlns="http://www.w3.org/2000/svg" xmlns:xlink="http://www.w3.org/1999/xlink" xml:space="preserve" xmlns:serif="http://www.serif.com/" style="fill-rule:evenodd;clip-rule:evenodd;stroke-linecap:round;stroke-linejoin:round;stroke-miterlimit:1.5;"><path d="M123.151,571.023l-0,-124" style="fill:none;stroke:#000;stroke-width:30px;"/><path d="M730.654,399.578l-0,224.844l-615.984,-0c-31.024,-0 -56.211,-25.188 -56.211,-56.211l0,-112.422c0,-31.023 25.187,-56.211 56.211,-56.211l615.984,0Zm45.792,0l132.884,0c31.024,0 56.211,25.188 56.211,56.211l-0,112.422c-0,31.023 -25.187,56.211 -56.211,56.211l-132.884,-0l0,-224.844Z" style="fill:none;stroke:#000;stroke-width:30px;"/><path d="M683.693,321.049l17.992,0c15.999,0 28.969,12.97 28.969,28.969l-0,334.702c-0,15.999 -12.97,28.969 -28.969,28.969l-17.992,0" style="fill:none;stroke:#000;stroke-width:30px;"/><path d="M823.407,321.049l-17.992,0c-15.999,0 -28.969,12.97 -28.969,28.969l0,334.702c0,15.999 12.97,28.969 28.969,28.969l17.992,0" style="fill:none;stroke:#000;stroke-width:30px;"/></svg>