<?xml version="1.0" encoding="UTF-8" standalone="no"?><!DOCTYPE svg PUBLIC "-//W3C//DTD SVG 1.1//EN" "http://www.w3.org/Graphics/SVG/1.1/DTD/svg11.dtd"><svg width="100%" height="100%" viewBox="0 0 1024 1024" version="1.1" xmlns="http://www.w3.org/2000/svg" xmlns:xlink="http://www.w3.org/1999/xlink" xml:space="preserve" xmlns:serif="http://www.serif.com/" style="fill-rule:evenodd;clip-rule:evenodd;stroke-linecap:round;stroke-linejoin:round;stroke-miterlimit:1.5;"><path d="M21.843,206.165l616.303,350.106l-238.605,92.732l-129.216,220.985l-248.482,-663.823Z"/><path d="M353.103,594.555l285.043,334.203" style="fill:none;stroke:#000;stroke-width:150px;"/><path d="M708.838,281.074l0,-126.506l-88.071,-0l108.97,-126.141l108.969,126.141l-88.071,-0l0,126.506l126.506,-0l0,-88.071l126.141,108.969l-126.141,108.97l0,-88.071l-126.506,-0l0,126.506l88.071,-0l-108.969,126.141l-108.97,-126.141l88.071,-0l0,-126.506l-126.506,-0l0,88.071l-126.141,-108.97l126.141,-108.969l0,88.071l126.506,-0Z"/></svg>