<?xml version="1.0" encoding="UTF-8" standalone="no"?><!DOCTYPE svg PUBLIC "-//W3C//DTD SVG 1.1//EN" "http://www.w3.org/Graphics/SVG/1.1/DTD/svg11.dtd"><svg width="100%" height="100%" viewBox="0 0 1024 1024" version="1.1" xmlns="http://www.w3.org/2000/svg" xmlns:xlink="http://www.w3.org/1999/xlink" xml:space="preserve" xmlns:serif="http://www.serif.com/" style="fill-rule:evenodd;clip-rule:evenodd;stroke-linejoin:round;stroke-miterlimit:2;"><path d="M632.471,1024l-60.236,-0l60.236,-0Zm-180.706,-0l-60.236,-0l60.236,-0Zm-361.412,-0l-60.235,-0l60.235,-0Zm-60.235,-0l-0,-662.588l60.235,-0l-0,-180.706l60.235,-0l0,-60.235l60.236,-0l-0,-60.236l180.705,0l0,-60.235l240.942,-0l-0,60.235l180.705,0l0,60.236l60.236,-0l-0,60.235l60.235,-0l0,180.706l60.235,-0l0,662.588l-421.647,-0l180.706,-0l0,-60.235l-60.235,-0l-0,-60.236l-60.235,0l-0,60.236l-60.236,-0l0,60.235l-542.117,-0Zm180.706,-60.235l60.235,-0l-0,60.235l-180.706,-0l-0,-60.235l60.235,-0l0,-60.236l60.236,0l-0,60.236Zm240.941,-0l60.235,-0l0,60.235l-180.706,-0l0,-60.235l60.235,-0l0,-60.236l60.236,0l-0,60.236Zm481.882,60.235l0,-120.471l-60.235,0l-0,60.236l-60.236,-0l0,60.235l120.471,-0Zm-180.706,-602.353l0,-120.471l120.471,0l-0,-60.235l-60.236,0l0,-60.235l-120.47,-0l-0,60.235l-60.235,0l-0,180.706l60.235,0l-0,60.235l120.47,0l0,-60.235l-60.235,0Zm-361.412,0l0,-120.471l120.471,0l0,-60.235l-60.235,0l-0,-60.235l-120.471,-0l0,60.235l-60.235,0l-0,180.706l60.235,0l0,60.235l120.471,0l-0,-60.235l-60.236,0Z"/></svg>