<?xml version="1.0" encoding="UTF-8" standalone="no"?>
<!DOCTYPE svg PUBLIC "-//W3C//DTD SVG 1.1//EN" "http://www.w3.org/Graphics/SVG/1.1/DTD/svg11.dtd">
<svg width="100%" height="100%" viewBox="0 0 1024 1024" version="1.1" xmlns="http://www.w3.org/2000/svg" xmlns:xlink="http://www.w3.org/1999/xlink" xml:space="preserve" xmlns:serif="http://www.serif.com/" style="fill-rule:evenodd;clip-rule:evenodd;stroke-linejoin:round;stroke-miterlimit:2;">
    <g transform="matrix(0.978704,0,0,0.978704,10.9037,10.9019)">
        <path d="M37.861,1015.6L37.861,363.832L97.128,363.832L97.128,186.03L156.396,186.03L156.396,126.762L215.664,126.762L215.664,67.494L393.465,67.494L393.465,8.227L630.535,8.227L630.535,67.494L808.336,67.494L808.336,126.762L867.604,126.762L867.604,186.03L926.872,186.03L926.872,363.832L986.139,363.832L986.139,1015.6L926.872,1015.6L926.872,897.238L867.604,897.238L867.604,956.506L808.336,956.506L808.336,1015.6L749.069,1015.6L749.069,956.506L689.802,956.506L689.802,897.238L630.535,897.238L630.535,956.506L571.267,956.506L571.267,1015.6L512,1015.6L512,956.506L452.733,956.506L452.733,897.238L393.465,897.238L393.465,956.506L334.198,956.506L334.198,1015.6L274.931,1015.6L274.931,956.506L215.664,956.506L215.664,897.238L156.396,897.238L156.396,956.506L97.128,956.506L97.128,1015.6L37.861,1015.6ZM393.465,423.099L393.465,304.564L512,304.564L512,245.297L452.733,245.297L452.733,186.03L334.198,186.03L334.198,245.297L274.931,245.297L274.931,423.099L334.198,423.099L334.198,482.366L452.733,482.366L452.733,423.099L393.465,423.099ZM749.069,423.099L749.069,304.564L867.604,304.564L867.604,245.297L808.336,245.297L808.336,186.03L689.802,186.03L689.802,245.297L630.535,245.297L630.535,423.099L689.802,423.099L689.802,482.366L808.336,482.366L808.336,423.099L749.069,423.099Z"/>
    </g>
</svg>
