<?xml version="1.0" encoding="UTF-8" standalone="no"?>
<!DOCTYPE svg PUBLIC "-//W3C//DTD SVG 1.1//EN" "http://www.w3.org/Graphics/SVG/1.1/DTD/svg11.dtd">
<svg width="100%" height="100%" viewBox="0 0 1024 1024" version="1.1" xmlns="http://www.w3.org/2000/svg" xmlns:xlink="http://www.w3.org/1999/xlink" xml:space="preserve" xmlns:serif="http://www.serif.com/" style="fill-rule:evenodd;clip-rule:evenodd;stroke-linejoin:round;stroke-miterlimit:2;">
    <g transform="matrix(1.80309,0,0,1.80309,-33.3747,72.3476)">
        <path d="M22.421,239.068C39.051,236.078 51.289,230.8 59.136,223.233C66.984,215.665 70.908,201.045 70.908,179.371L70.908,54.372C70.908,26.158 77.821,5.699 91.647,-7.007C105.474,-19.712 131.258,-25.971 169.001,-25.785L169.561,-12.892C156.482,-10.09 146.393,-6.773 139.293,-2.943C132.193,0.888 127.008,5.559 123.738,11.071C120.468,16.582 118.553,23.169 117.992,30.829C117.432,38.49 117.152,47.645 117.152,58.296L117.152,151.344C117.152,179.558 113.415,200.391 105.941,213.844C98.467,227.296 85.014,237.012 65.582,242.991L65.582,244.673C85.014,250.652 98.467,260.368 105.941,273.821C113.415,287.274 117.152,308.107 117.152,336.32L117.152,429.369C117.152,440.019 117.432,449.174 117.992,456.835C118.553,464.496 120.468,471.082 123.738,476.594C127.008,482.106 132.193,486.777 139.293,490.607C146.393,494.437 156.295,497.754 169.001,500.557L169.561,513.449C131.445,513.636 105.474,507.376 91.647,494.671C77.821,481.966 70.908,461.506 70.908,433.293L70.908,308.294C70.908,286.62 66.984,271.999 59.136,264.432C51.289,256.865 39.237,251.586 22.982,248.597L22.421,239.068Z" style="fill-rule:nonzero;"/>
    </g>
    <g transform="matrix(-1.80309,0,0,1.80309,1057.37,72.3476)">
        <path d="M22.421,239.068C39.051,236.078 51.289,230.8 59.136,223.233C66.984,215.665 70.908,201.045 70.908,179.371L70.908,54.372C70.908,26.158 77.821,5.699 91.647,-7.007C105.474,-19.712 131.258,-25.971 169.001,-25.785L169.561,-12.892C156.482,-10.09 146.393,-6.773 139.293,-2.943C132.193,0.888 127.008,5.559 123.738,11.071C120.468,16.582 118.553,23.169 117.992,30.829C117.432,38.49 117.152,47.645 117.152,58.296L117.152,151.344C117.152,179.558 113.415,200.391 105.941,213.844C98.467,227.296 85.014,237.012 65.582,242.991L65.582,244.673C85.014,250.652 98.467,260.368 105.941,273.821C113.415,287.274 117.152,308.107 117.152,336.32L117.152,429.369C117.152,440.019 117.432,449.174 117.992,456.835C118.553,464.496 120.468,471.082 123.738,476.594C127.008,482.106 132.193,486.777 139.293,490.607C146.393,494.437 156.295,497.754 169.001,500.557L169.561,513.449C131.445,513.636 105.474,507.376 91.647,494.671C77.821,481.966 70.908,461.506 70.908,433.293L70.908,308.294C70.908,286.62 66.984,271.999 59.136,264.432C51.289,256.865 39.237,251.586 22.982,248.597L22.421,239.068Z" style="fill-rule:nonzero;"/>
    </g>
    <g transform="matrix(1.11225,0,0,1.11225,-4.87913,-65.7152)">
        <path d="M698.768,359.101C637.037,365.489 570.673,391.021 490.765,486.051C509.94,651.702 525.875,689.773 565.575,689.773C581.78,689.773 605.546,681.615 617.699,661.446L637.955,628.815L642.276,631.081L617.159,672.55C599.604,701.54 568.006,711.723 546.13,711.723C464.298,711.723 433.24,653.515 417.845,584.409C373.824,645.135 323.05,721.24 262.283,721.24C237.437,721.24 229.875,705.387 229.875,689.535C229.875,678.891 233.386,668.246 237.437,663.035C256.342,665.301 271.196,668.02 285.24,668.02C319.269,668.02 350.327,642.866 413.794,563.78C396.78,468.378 402.181,362.098 343.575,362.098C336.013,362.098 322.24,367.763 313.057,382.72L307.656,381.36L313.597,371.616C330.342,344.441 360.86,332.67 382.466,332.67C449.984,332.67 474.291,394.956 487.524,467.696C553.621,389.959 617.355,340.441 689.07,317.583C693.498,323.659 696.74,330.748 698.382,338.578C699.843,345.545 699.908,352.483 698.768,359.101Z" style="fill-rule:nonzero;"/>
    </g>
</svg>
